<mxfile host="app.diagrams.net" modified="2023-02-18T21:54:08.206Z" agent="5.0 (Windows)" etag="EdMf04_480WPxxVFRhMH" version="20.8.20" type="github">
  <diagram name="Page-1" id="weistBWA4FWKPBlEQB_p">
    <mxGraphModel dx="1000" dy="512" grid="1" gridSize="10" guides="1" tooltips="1" connect="1" arrows="1" fold="1" page="1" pageScale="1" pageWidth="1500" pageHeight="5000" math="0" shadow="0">
      <root>
        <mxCell id="0" />
        <mxCell id="1" parent="0" />
        <mxCell id="n2Hj3zOm0ep31aaKVUj5-1" style="edgeStyle=orthogonalEdgeStyle;rounded=0;orthogonalLoop=1;jettySize=auto;html=1;exitX=0;exitY=1;exitDx=0;exitDy=0;entryX=1;entryY=0;entryDx=0;entryDy=0;startArrow=oval;startFill=0;" parent="1" source="n2Hj3zOm0ep31aaKVUj5-4" target="n2Hj3zOm0ep31aaKVUj5-8" edge="1">
          <mxGeometry relative="1" as="geometry" />
        </mxCell>
        <mxCell id="n2Hj3zOm0ep31aaKVUj5-2" style="edgeStyle=orthogonalEdgeStyle;rounded=0;orthogonalLoop=1;jettySize=auto;html=1;exitX=0.5;exitY=1;exitDx=0;exitDy=0;entryX=0.5;entryY=0;entryDx=0;entryDy=0;startArrow=oval;startFill=0;" parent="1" source="n2Hj3zOm0ep31aaKVUj5-4" target="n2Hj3zOm0ep31aaKVUj5-7" edge="1">
          <mxGeometry relative="1" as="geometry" />
        </mxCell>
        <mxCell id="n2Hj3zOm0ep31aaKVUj5-3" style="edgeStyle=orthogonalEdgeStyle;rounded=0;orthogonalLoop=1;jettySize=auto;html=1;exitX=1;exitY=1;exitDx=0;exitDy=0;entryX=0;entryY=0;entryDx=0;entryDy=0;startArrow=oval;startFill=0;" parent="1" source="n2Hj3zOm0ep31aaKVUj5-4" target="n2Hj3zOm0ep31aaKVUj5-5" edge="1">
          <mxGeometry relative="1" as="geometry" />
        </mxCell>
        <mxCell id="n2Hj3zOm0ep31aaKVUj5-4" value="Opening" style="rounded=0;whiteSpace=wrap;html=1;" parent="1" vertex="1">
          <mxGeometry x="750" y="10" width="120" height="60" as="geometry" />
        </mxCell>
        <mxCell id="n2Hj3zOm0ep31aaKVUj5-5" value="Disagree w/ both" style="rounded=0;whiteSpace=wrap;html=1;" parent="1" vertex="1">
          <mxGeometry x="900" y="90" width="120" height="60" as="geometry" />
        </mxCell>
        <mxCell id="n2Hj3zOm0ep31aaKVUj5-6" style="edgeStyle=orthogonalEdgeStyle;rounded=0;orthogonalLoop=1;jettySize=auto;html=1;exitX=0.5;exitY=1;exitDx=0;exitDy=0;entryX=0.5;entryY=0;entryDx=0;entryDy=0;startArrow=oval;startFill=0;" parent="1" source="n2Hj3zOm0ep31aaKVUj5-7" target="n2Hj3zOm0ep31aaKVUj5-11" edge="1">
          <mxGeometry relative="1" as="geometry" />
        </mxCell>
        <mxCell id="n2Hj3zOm0ep31aaKVUj5-7" value="Agree w/ Eleni" style="rounded=0;whiteSpace=wrap;html=1;" parent="1" vertex="1">
          <mxGeometry x="750" y="90" width="120" height="60" as="geometry" />
        </mxCell>
        <mxCell id="n2Hj3zOm0ep31aaKVUj5-8" value="Agree w/ Jia" style="rounded=0;whiteSpace=wrap;html=1;" parent="1" vertex="1">
          <mxGeometry x="600" y="90" width="120" height="60" as="geometry" />
        </mxCell>
        <mxCell id="n2Hj3zOm0ep31aaKVUj5-9" style="edgeStyle=orthogonalEdgeStyle;rounded=0;orthogonalLoop=1;jettySize=auto;html=1;exitX=0.25;exitY=1;exitDx=0;exitDy=0;entryX=0.842;entryY=-0.033;entryDx=0;entryDy=0;entryPerimeter=0;startArrow=oval;startFill=0;" parent="1" source="n2Hj3zOm0ep31aaKVUj5-11" target="n2Hj3zOm0ep31aaKVUj5-13" edge="1">
          <mxGeometry relative="1" as="geometry" />
        </mxCell>
        <mxCell id="n2Hj3zOm0ep31aaKVUj5-10" style="edgeStyle=orthogonalEdgeStyle;rounded=0;orthogonalLoop=1;jettySize=auto;html=1;exitX=0.75;exitY=1;exitDx=0;exitDy=0;entryX=0.25;entryY=0;entryDx=0;entryDy=0;startArrow=oval;startFill=0;" parent="1" source="n2Hj3zOm0ep31aaKVUj5-11" target="n2Hj3zOm0ep31aaKVUj5-15" edge="1">
          <mxGeometry relative="1" as="geometry" />
        </mxCell>
        <mxCell id="n2Hj3zOm0ep31aaKVUj5-11" value="Talk w/ Petren" style="rounded=0;whiteSpace=wrap;html=1;" parent="1" vertex="1">
          <mxGeometry x="750" y="170" width="120" height="60" as="geometry" />
        </mxCell>
        <mxCell id="n2Hj3zOm0ep31aaKVUj5-12" style="edgeStyle=orthogonalEdgeStyle;rounded=0;orthogonalLoop=1;jettySize=auto;html=1;exitX=0.5;exitY=1;exitDx=0;exitDy=0;entryX=0;entryY=0;entryDx=0;entryDy=0;startArrow=oval;startFill=0;" parent="1" source="n2Hj3zOm0ep31aaKVUj5-13" target="n2Hj3zOm0ep31aaKVUj5-17" edge="1">
          <mxGeometry relative="1" as="geometry" />
        </mxCell>
        <mxCell id="n2Hj3zOm0ep31aaKVUj5-13" value="Overconfidence" style="rounded=0;whiteSpace=wrap;html=1;" parent="1" vertex="1">
          <mxGeometry x="675" y="250" width="120" height="60" as="geometry" />
        </mxCell>
        <mxCell id="n2Hj3zOm0ep31aaKVUj5-14" style="edgeStyle=orthogonalEdgeStyle;rounded=0;orthogonalLoop=1;jettySize=auto;html=1;exitX=0.5;exitY=1;exitDx=0;exitDy=0;entryX=1;entryY=0;entryDx=0;entryDy=0;startArrow=oval;startFill=0;" parent="1" source="n2Hj3zOm0ep31aaKVUj5-15" target="n2Hj3zOm0ep31aaKVUj5-17" edge="1">
          <mxGeometry relative="1" as="geometry" />
        </mxCell>
        <mxCell id="n2Hj3zOm0ep31aaKVUj5-15" value="Nervous" style="rounded=0;whiteSpace=wrap;html=1;" parent="1" vertex="1">
          <mxGeometry x="830" y="250" width="120" height="60" as="geometry" />
        </mxCell>
        <mxCell id="n2Hj3zOm0ep31aaKVUj5-16" style="edgeStyle=orthogonalEdgeStyle;rounded=0;orthogonalLoop=1;jettySize=auto;html=1;exitX=0.5;exitY=1;exitDx=0;exitDy=0;entryX=0.5;entryY=0;entryDx=0;entryDy=0;startArrow=oval;startFill=0;" parent="1" source="n2Hj3zOm0ep31aaKVUj5-17" target="n2Hj3zOm0ep31aaKVUj5-22" edge="1">
          <mxGeometry relative="1" as="geometry" />
        </mxCell>
        <mxCell id="n2Hj3zOm0ep31aaKVUj5-17" value="Prepping Dinner" style="rounded=0;whiteSpace=wrap;html=1;" parent="1" vertex="1">
          <mxGeometry x="750" y="330" width="120" height="60" as="geometry" />
        </mxCell>
        <mxCell id="n2Hj3zOm0ep31aaKVUj5-18" style="edgeStyle=orthogonalEdgeStyle;rounded=0;orthogonalLoop=1;jettySize=auto;html=1;exitX=0;exitY=0.75;exitDx=0;exitDy=0;entryX=0.558;entryY=0;entryDx=0;entryDy=0;entryPerimeter=0;startArrow=oval;startFill=0;" parent="1" source="n2Hj3zOm0ep31aaKVUj5-22" target="n2Hj3zOm0ep31aaKVUj5-24" edge="1">
          <mxGeometry relative="1" as="geometry" />
        </mxCell>
        <mxCell id="n2Hj3zOm0ep31aaKVUj5-19" style="edgeStyle=orthogonalEdgeStyle;rounded=0;orthogonalLoop=1;jettySize=auto;html=1;exitX=1;exitY=0.75;exitDx=0;exitDy=0;entryX=0.558;entryY=-0.033;entryDx=0;entryDy=0;entryPerimeter=0;startArrow=oval;startFill=0;" parent="1" source="n2Hj3zOm0ep31aaKVUj5-22" target="n2Hj3zOm0ep31aaKVUj5-30" edge="1">
          <mxGeometry relative="1" as="geometry" />
        </mxCell>
        <mxCell id="n2Hj3zOm0ep31aaKVUj5-20" style="edgeStyle=orthogonalEdgeStyle;rounded=0;orthogonalLoop=1;jettySize=auto;html=1;exitX=0.75;exitY=1;exitDx=0;exitDy=0;entryX=0.175;entryY=0;entryDx=0;entryDy=0;entryPerimeter=0;startArrow=oval;startFill=0;" parent="1" source="n2Hj3zOm0ep31aaKVUj5-22" target="n2Hj3zOm0ep31aaKVUj5-28" edge="1">
          <mxGeometry relative="1" as="geometry" />
        </mxCell>
        <mxCell id="n2Hj3zOm0ep31aaKVUj5-21" style="edgeStyle=orthogonalEdgeStyle;rounded=0;orthogonalLoop=1;jettySize=auto;html=1;exitX=0.25;exitY=1;exitDx=0;exitDy=0;entryX=0.833;entryY=-0.017;entryDx=0;entryDy=0;entryPerimeter=0;startArrow=oval;startFill=0;" parent="1" source="n2Hj3zOm0ep31aaKVUj5-22" target="n2Hj3zOm0ep31aaKVUj5-26" edge="1">
          <mxGeometry relative="1" as="geometry" />
        </mxCell>
        <mxCell id="n2Hj3zOm0ep31aaKVUj5-22" value="Discuss the plan" style="rounded=0;whiteSpace=wrap;html=1;" parent="1" vertex="1">
          <mxGeometry x="750" y="410" width="120" height="60" as="geometry" />
        </mxCell>
        <mxCell id="n2Hj3zOm0ep31aaKVUj5-23" style="edgeStyle=orthogonalEdgeStyle;rounded=0;orthogonalLoop=1;jettySize=auto;html=1;exitX=0.25;exitY=1;exitDx=0;exitDy=0;entryX=0.5;entryY=0;entryDx=0;entryDy=0;startArrow=oval;startFill=0;" parent="1" source="n2Hj3zOm0ep31aaKVUj5-24" target="n2Hj3zOm0ep31aaKVUj5-40" edge="1">
          <mxGeometry relative="1" as="geometry">
            <mxPoint x="570" y="590" as="sourcePoint" />
            <Array as="points">
              <mxPoint x="290" y="590" />
            </Array>
          </mxGeometry>
        </mxCell>
        <mxCell id="n2Hj3zOm0ep31aaKVUj5-24" value="Sewer System" style="rounded=0;whiteSpace=wrap;html=1;" parent="1" vertex="1">
          <mxGeometry x="540" y="530" width="120" height="60" as="geometry" />
        </mxCell>
        <mxCell id="n2Hj3zOm0ep31aaKVUj5-25" style="edgeStyle=orthogonalEdgeStyle;rounded=0;orthogonalLoop=1;jettySize=auto;html=1;exitX=0.25;exitY=1;exitDx=0;exitDy=0;entryX=0.25;entryY=0;entryDx=0;entryDy=0;startArrow=oval;startFill=0;" parent="1" source="n2Hj3zOm0ep31aaKVUj5-26" target="n2Hj3zOm0ep31aaKVUj5-39" edge="1">
          <mxGeometry relative="1" as="geometry">
            <mxPoint x="710" y="590" as="sourcePoint" />
          </mxGeometry>
        </mxCell>
        <mxCell id="n2Hj3zOm0ep31aaKVUj5-26" value="Over the Wall" style="rounded=0;whiteSpace=wrap;html=1;" parent="1" vertex="1">
          <mxGeometry x="680" y="530" width="120" height="60" as="geometry" />
        </mxCell>
        <mxCell id="n2Hj3zOm0ep31aaKVUj5-27" style="edgeStyle=orthogonalEdgeStyle;rounded=0;orthogonalLoop=1;jettySize=auto;html=1;exitX=0.5;exitY=1;exitDx=0;exitDy=0;entryX=0.5;entryY=0;entryDx=0;entryDy=0;startArrow=oval;startFill=0;" parent="1" source="n2Hj3zOm0ep31aaKVUj5-28" target="n2Hj3zOm0ep31aaKVUj5-38" edge="1">
          <mxGeometry relative="1" as="geometry">
            <mxPoint x="880" y="590" as="sourcePoint" />
          </mxGeometry>
        </mxCell>
        <mxCell id="n2Hj3zOm0ep31aaKVUj5-28" value="Just Walk In" style="rounded=0;whiteSpace=wrap;html=1;" parent="1" vertex="1">
          <mxGeometry x="820" y="530" width="120" height="60" as="geometry" />
        </mxCell>
        <mxCell id="n2Hj3zOm0ep31aaKVUj5-29" style="edgeStyle=orthogonalEdgeStyle;rounded=0;orthogonalLoop=1;jettySize=auto;html=1;exitX=0.5;exitY=1;exitDx=0;exitDy=0;entryX=0.5;entryY=0;entryDx=0;entryDy=0;startArrow=oval;startFill=0;" parent="1" target="n2Hj3zOm0ep31aaKVUj5-34" edge="1">
          <mxGeometry relative="1" as="geometry">
            <mxPoint x="1020" y="590" as="sourcePoint" />
          </mxGeometry>
        </mxCell>
        <mxCell id="n2Hj3zOm0ep31aaKVUj5-30" value="Build a Catapult" style="rounded=0;whiteSpace=wrap;html=1;" parent="1" vertex="1">
          <mxGeometry x="960" y="530" width="120" height="60" as="geometry" />
        </mxCell>
        <mxCell id="K6sIrCLV8SlveV585Ign-54" style="edgeStyle=orthogonalEdgeStyle;rounded=0;orthogonalLoop=1;jettySize=auto;html=1;exitX=0.5;exitY=1;exitDx=0;exitDy=0;entryX=0.75;entryY=0;entryDx=0;entryDy=0;" parent="1" source="n2Hj3zOm0ep31aaKVUj5-34" target="n2Hj3zOm0ep31aaKVUj5-28" edge="1">
          <mxGeometry relative="1" as="geometry">
            <mxPoint x="1130" y="470" as="targetPoint" />
            <Array as="points">
              <mxPoint x="1020" y="650" />
              <mxPoint x="1120" y="650" />
              <mxPoint x="1120" y="450" />
              <mxPoint x="910" y="450" />
            </Array>
          </mxGeometry>
        </mxCell>
        <mxCell id="K6sIrCLV8SlveV585Ign-56" style="edgeStyle=orthogonalEdgeStyle;rounded=0;orthogonalLoop=1;jettySize=auto;html=1;exitX=1;exitY=0.5;exitDx=0;exitDy=0;entryX=0.5;entryY=0;entryDx=0;entryDy=0;" parent="1" source="n2Hj3zOm0ep31aaKVUj5-34" target="n2Hj3zOm0ep31aaKVUj5-26" edge="1">
          <mxGeometry relative="1" as="geometry" />
        </mxCell>
        <mxCell id="K6sIrCLV8SlveV585Ign-57" style="edgeStyle=orthogonalEdgeStyle;rounded=0;orthogonalLoop=1;jettySize=auto;html=1;exitX=1;exitY=0.25;exitDx=0;exitDy=0;entryX=0.75;entryY=0;entryDx=0;entryDy=0;" parent="1" source="n2Hj3zOm0ep31aaKVUj5-34" target="n2Hj3zOm0ep31aaKVUj5-24" edge="1">
          <mxGeometry relative="1" as="geometry" />
        </mxCell>
        <mxCell id="n2Hj3zOm0ep31aaKVUj5-34" value="That&#39;s a stupid Idea" style="rounded=0;whiteSpace=wrap;html=1;" parent="1" vertex="1">
          <mxGeometry x="950" y="610" width="120" height="60" as="geometry" />
        </mxCell>
        <mxCell id="n2Hj3zOm0ep31aaKVUj5-35" style="edgeStyle=orthogonalEdgeStyle;rounded=0;orthogonalLoop=1;jettySize=auto;html=1;exitX=0.25;exitY=1;exitDx=0;exitDy=0;entryX=0.75;entryY=0;entryDx=0;entryDy=0;startArrow=oval;startFill=0;" parent="1" source="n2Hj3zOm0ep31aaKVUj5-38" target="n2Hj3zOm0ep31aaKVUj5-45" edge="1">
          <mxGeometry relative="1" as="geometry" />
        </mxCell>
        <mxCell id="n2Hj3zOm0ep31aaKVUj5-36" style="edgeStyle=orthogonalEdgeStyle;rounded=0;orthogonalLoop=1;jettySize=auto;html=1;exitX=0.5;exitY=1;exitDx=0;exitDy=0;entryX=0.5;entryY=0;entryDx=0;entryDy=0;startArrow=oval;startFill=0;" parent="1" source="n2Hj3zOm0ep31aaKVUj5-38" target="n2Hj3zOm0ep31aaKVUj5-47" edge="1">
          <mxGeometry relative="1" as="geometry" />
        </mxCell>
        <mxCell id="n2Hj3zOm0ep31aaKVUj5-37" style="edgeStyle=orthogonalEdgeStyle;rounded=0;orthogonalLoop=1;jettySize=auto;html=1;exitX=0.75;exitY=1;exitDx=0;exitDy=0;entryX=0.5;entryY=0;entryDx=0;entryDy=0;startArrow=oval;startFill=0;" parent="1" source="n2Hj3zOm0ep31aaKVUj5-38" target="n2Hj3zOm0ep31aaKVUj5-49" edge="1">
          <mxGeometry relative="1" as="geometry" />
        </mxCell>
        <mxCell id="n2Hj3zOm0ep31aaKVUj5-38" value="Entering the City" style="rounded=0;whiteSpace=wrap;html=1;" parent="1" vertex="1">
          <mxGeometry x="820" y="640" width="120" height="60" as="geometry" />
        </mxCell>
        <mxCell id="K6sIrCLV8SlveV585Ign-60" style="edgeStyle=orthogonalEdgeStyle;rounded=0;orthogonalLoop=1;jettySize=auto;html=1;exitX=0.25;exitY=1;exitDx=0;exitDy=0;entryX=0.842;entryY=-0.033;entryDx=0;entryDy=0;entryPerimeter=0;" parent="1" source="n2Hj3zOm0ep31aaKVUj5-39" target="K6sIrCLV8SlveV585Ign-58" edge="1">
          <mxGeometry relative="1" as="geometry" />
        </mxCell>
        <mxCell id="K6sIrCLV8SlveV585Ign-61" style="edgeStyle=orthogonalEdgeStyle;rounded=0;orthogonalLoop=1;jettySize=auto;html=1;exitX=0.75;exitY=1;exitDx=0;exitDy=0;entryX=0.25;entryY=0;entryDx=0;entryDy=0;" parent="1" source="n2Hj3zOm0ep31aaKVUj5-39" target="K6sIrCLV8SlveV585Ign-59" edge="1">
          <mxGeometry relative="1" as="geometry" />
        </mxCell>
        <mxCell id="n2Hj3zOm0ep31aaKVUj5-39" value="Gonna Be Close" style="rounded=0;whiteSpace=wrap;html=1;" parent="1" vertex="1">
          <mxGeometry x="610" y="640" width="120" height="60" as="geometry" />
        </mxCell>
        <mxCell id="K6sIrCLV8SlveV585Ign-66" style="edgeStyle=orthogonalEdgeStyle;rounded=0;orthogonalLoop=1;jettySize=auto;html=1;exitX=0.25;exitY=1;exitDx=0;exitDy=0;entryX=0.5;entryY=0;entryDx=0;entryDy=0;" parent="1" source="n2Hj3zOm0ep31aaKVUj5-40" target="K6sIrCLV8SlveV585Ign-63" edge="1">
          <mxGeometry relative="1" as="geometry">
            <Array as="points">
              <mxPoint x="260" y="710" />
              <mxPoint x="150" y="710" />
            </Array>
          </mxGeometry>
        </mxCell>
        <mxCell id="K6sIrCLV8SlveV585Ign-67" style="edgeStyle=orthogonalEdgeStyle;rounded=0;orthogonalLoop=1;jettySize=auto;html=1;exitX=0.5;exitY=1;exitDx=0;exitDy=0;entryX=0.5;entryY=0;entryDx=0;entryDy=0;" parent="1" source="n2Hj3zOm0ep31aaKVUj5-40" target="K6sIrCLV8SlveV585Ign-64" edge="1">
          <mxGeometry relative="1" as="geometry" />
        </mxCell>
        <mxCell id="K6sIrCLV8SlveV585Ign-68" style="edgeStyle=orthogonalEdgeStyle;rounded=0;orthogonalLoop=1;jettySize=auto;html=1;exitX=0.75;exitY=1;exitDx=0;exitDy=0;entryX=0.5;entryY=0;entryDx=0;entryDy=0;" parent="1" source="n2Hj3zOm0ep31aaKVUj5-40" target="K6sIrCLV8SlveV585Ign-65" edge="1">
          <mxGeometry relative="1" as="geometry">
            <Array as="points">
              <mxPoint x="320" y="710" />
              <mxPoint x="430" y="710" />
            </Array>
          </mxGeometry>
        </mxCell>
        <mxCell id="n2Hj3zOm0ep31aaKVUj5-40" value="Entering the Sewers" style="rounded=0;whiteSpace=wrap;html=1;" parent="1" vertex="1">
          <mxGeometry x="230" y="640" width="120" height="60" as="geometry" />
        </mxCell>
        <mxCell id="n2Hj3zOm0ep31aaKVUj5-41" style="edgeStyle=orthogonalEdgeStyle;rounded=0;orthogonalLoop=1;jettySize=auto;html=1;entryX=0.5;entryY=0;entryDx=0;entryDy=0;startArrow=oval;startFill=0;exitX=0.5;exitY=1;exitDx=0;exitDy=0;" parent="1" source="n2Hj3zOm0ep31aaKVUj5-42" target="n2Hj3zOm0ep31aaKVUj5-43" edge="1">
          <mxGeometry relative="1" as="geometry">
            <Array as="points">
              <mxPoint x="880" y="990" />
              <mxPoint x="760" y="990" />
            </Array>
            <mxPoint x="870" y="960" as="sourcePoint" />
          </mxGeometry>
        </mxCell>
        <mxCell id="n2Hj3zOm0ep31aaKVUj5-42" value="In the City" style="rounded=0;whiteSpace=wrap;html=1;" parent="1" vertex="1">
          <mxGeometry x="820" y="870" width="120" height="60" as="geometry" />
        </mxCell>
        <mxCell id="n2Hj3zOm0ep31aaKVUj5-43" value="The Sharp Spoon Inn" style="rounded=0;whiteSpace=wrap;html=1;" parent="1" vertex="1">
          <mxGeometry x="700" y="1010" width="120" height="60" as="geometry" />
        </mxCell>
        <mxCell id="K6sIrCLV8SlveV585Ign-94" style="edgeStyle=orthogonalEdgeStyle;rounded=0;orthogonalLoop=1;jettySize=auto;html=1;exitX=0.5;exitY=1;exitDx=0;exitDy=0;entryX=0.125;entryY=0;entryDx=0;entryDy=0;entryPerimeter=0;" parent="1" source="n2Hj3zOm0ep31aaKVUj5-45" target="n2Hj3zOm0ep31aaKVUj5-42" edge="1">
          <mxGeometry relative="1" as="geometry" />
        </mxCell>
        <mxCell id="n2Hj3zOm0ep31aaKVUj5-45" value="A" style="rounded=0;whiteSpace=wrap;html=1;" parent="1" vertex="1">
          <mxGeometry x="820" y="720" width="30" height="20" as="geometry" />
        </mxCell>
        <mxCell id="n2Hj3zOm0ep31aaKVUj5-46" style="edgeStyle=orthogonalEdgeStyle;rounded=0;orthogonalLoop=1;jettySize=auto;html=1;exitX=0.5;exitY=1;exitDx=0;exitDy=0;entryX=0.5;entryY=0;entryDx=0;entryDy=0;startArrow=oval;startFill=0;" parent="1" source="n2Hj3zOm0ep31aaKVUj5-47" target="n2Hj3zOm0ep31aaKVUj5-42" edge="1">
          <mxGeometry relative="1" as="geometry" />
        </mxCell>
        <mxCell id="n2Hj3zOm0ep31aaKVUj5-47" value="B" style="rounded=0;whiteSpace=wrap;html=1;" parent="1" vertex="1">
          <mxGeometry x="865" y="720" width="30" height="20" as="geometry" />
        </mxCell>
        <mxCell id="n2Hj3zOm0ep31aaKVUj5-48" style="edgeStyle=orthogonalEdgeStyle;rounded=0;orthogonalLoop=1;jettySize=auto;html=1;exitX=0.5;exitY=1;exitDx=0;exitDy=0;entryX=0.858;entryY=-0.017;entryDx=0;entryDy=0;entryPerimeter=0;startArrow=oval;startFill=0;" parent="1" source="n2Hj3zOm0ep31aaKVUj5-49" target="n2Hj3zOm0ep31aaKVUj5-42" edge="1">
          <mxGeometry relative="1" as="geometry">
            <Array as="points">
              <mxPoint x="923" y="740" />
            </Array>
          </mxGeometry>
        </mxCell>
        <mxCell id="n2Hj3zOm0ep31aaKVUj5-49" value="C" style="rounded=0;whiteSpace=wrap;html=1;" parent="1" vertex="1">
          <mxGeometry x="910" y="720" width="30" height="20" as="geometry" />
        </mxCell>
        <mxCell id="K6sIrCLV8SlveV585Ign-74" style="edgeStyle=orthogonalEdgeStyle;rounded=0;orthogonalLoop=1;jettySize=auto;html=1;exitX=0.5;exitY=1;exitDx=0;exitDy=0;entryX=0.5;entryY=0;entryDx=0;entryDy=0;" parent="1" source="K6sIrCLV8SlveV585Ign-58" target="K6sIrCLV8SlveV585Ign-71" edge="1">
          <mxGeometry relative="1" as="geometry" />
        </mxCell>
        <mxCell id="K6sIrCLV8SlveV585Ign-58" value="Climb a tree" style="rounded=0;whiteSpace=wrap;html=1;" parent="1" vertex="1">
          <mxGeometry x="540" y="720" width="120" height="60" as="geometry" />
        </mxCell>
        <mxCell id="K6sIrCLV8SlveV585Ign-72" style="edgeStyle=orthogonalEdgeStyle;rounded=0;orthogonalLoop=1;jettySize=auto;html=1;exitX=0.75;exitY=1;exitDx=0;exitDy=0;entryX=0.5;entryY=0;entryDx=0;entryDy=0;" parent="1" source="K6sIrCLV8SlveV585Ign-59" target="K6sIrCLV8SlveV585Ign-71" edge="1">
          <mxGeometry relative="1" as="geometry" />
        </mxCell>
        <mxCell id="K6sIrCLV8SlveV585Ign-59" value="Climb the wall" style="rounded=0;whiteSpace=wrap;html=1;" parent="1" vertex="1">
          <mxGeometry x="670" y="720" width="120" height="60" as="geometry" />
        </mxCell>
        <mxCell id="K6sIrCLV8SlveV585Ign-80" style="edgeStyle=orthogonalEdgeStyle;rounded=0;orthogonalLoop=1;jettySize=auto;html=1;exitX=0.5;exitY=1;exitDx=0;exitDy=0;entryX=0.5;entryY=0;entryDx=0;entryDy=0;" parent="1" source="K6sIrCLV8SlveV585Ign-63" target="K6sIrCLV8SlveV585Ign-75" edge="1">
          <mxGeometry relative="1" as="geometry" />
        </mxCell>
        <mxCell id="K6sIrCLV8SlveV585Ign-63" value="Left" style="rounded=0;whiteSpace=wrap;html=1;" parent="1" vertex="1">
          <mxGeometry x="90" y="720" width="120" height="60" as="geometry" />
        </mxCell>
        <mxCell id="K6sIrCLV8SlveV585Ign-85" style="edgeStyle=orthogonalEdgeStyle;rounded=0;orthogonalLoop=1;jettySize=auto;html=1;exitX=0.5;exitY=1;exitDx=0;exitDy=0;entryX=0.5;entryY=0;entryDx=0;entryDy=0;" parent="1" source="K6sIrCLV8SlveV585Ign-64" target="K6sIrCLV8SlveV585Ign-84" edge="1">
          <mxGeometry relative="1" as="geometry" />
        </mxCell>
        <mxCell id="K6sIrCLV8SlveV585Ign-64" value="Center" style="rounded=0;whiteSpace=wrap;html=1;" parent="1" vertex="1">
          <mxGeometry x="230" y="720" width="120" height="60" as="geometry" />
        </mxCell>
        <mxCell id="K6sIrCLV8SlveV585Ign-87" style="edgeStyle=orthogonalEdgeStyle;rounded=0;orthogonalLoop=1;jettySize=auto;html=1;exitX=0.5;exitY=1;exitDx=0;exitDy=0;entryX=0.5;entryY=0;entryDx=0;entryDy=0;" parent="1" source="K6sIrCLV8SlveV585Ign-65" target="K6sIrCLV8SlveV585Ign-86" edge="1">
          <mxGeometry relative="1" as="geometry" />
        </mxCell>
        <mxCell id="K6sIrCLV8SlveV585Ign-65" value="Right" style="rounded=0;whiteSpace=wrap;html=1;" parent="1" vertex="1">
          <mxGeometry x="370" y="720" width="120" height="60" as="geometry" />
        </mxCell>
        <mxCell id="K6sIrCLV8SlveV585Ign-71" value="Death" style="rounded=0;whiteSpace=wrap;html=1;" parent="1" vertex="1">
          <mxGeometry x="610" y="810" width="120" height="60" as="geometry" />
        </mxCell>
        <mxCell id="K6sIrCLV8SlveV585Ign-75" value="Death" style="rounded=0;whiteSpace=wrap;html=1;" parent="1" vertex="1">
          <mxGeometry x="90" y="800" width="120" height="60" as="geometry" />
        </mxCell>
        <mxCell id="K6sIrCLV8SlveV585Ign-92" style="edgeStyle=orthogonalEdgeStyle;rounded=0;orthogonalLoop=1;jettySize=auto;html=1;exitX=0.5;exitY=1;exitDx=0;exitDy=0;entryX=0.5;entryY=0;entryDx=0;entryDy=0;" parent="1" source="K6sIrCLV8SlveV585Ign-84" target="K6sIrCLV8SlveV585Ign-88" edge="1">
          <mxGeometry relative="1" as="geometry" />
        </mxCell>
        <mxCell id="K6sIrCLV8SlveV585Ign-93" style="edgeStyle=orthogonalEdgeStyle;rounded=0;orthogonalLoop=1;jettySize=auto;html=1;exitX=0.5;exitY=1;exitDx=0;exitDy=0;entryX=0.556;entryY=-0.031;entryDx=0;entryDy=0;entryPerimeter=0;" parent="1" source="K6sIrCLV8SlveV585Ign-84" target="K6sIrCLV8SlveV585Ign-89" edge="1">
          <mxGeometry relative="1" as="geometry" />
        </mxCell>
        <mxCell id="K6sIrCLV8SlveV585Ign-84" value="Fight Scene" style="rounded=0;whiteSpace=wrap;html=1;" parent="1" vertex="1">
          <mxGeometry x="230" y="800" width="120" height="60" as="geometry" />
        </mxCell>
        <mxCell id="K6sIrCLV8SlveV585Ign-90" style="edgeStyle=orthogonalEdgeStyle;rounded=0;orthogonalLoop=1;jettySize=auto;html=1;exitX=0.5;exitY=1;exitDx=0;exitDy=0;entryX=0.5;entryY=0;entryDx=0;entryDy=0;" parent="1" source="K6sIrCLV8SlveV585Ign-86" target="n2Hj3zOm0ep31aaKVUj5-43" edge="1">
          <mxGeometry relative="1" as="geometry" />
        </mxCell>
        <mxCell id="K6sIrCLV8SlveV585Ign-86" value="Exit" style="rounded=0;whiteSpace=wrap;html=1;" parent="1" vertex="1">
          <mxGeometry x="430" y="840" width="120" height="60" as="geometry" />
        </mxCell>
        <mxCell id="K6sIrCLV8SlveV585Ign-88" value="Run-Death" style="rounded=0;whiteSpace=wrap;html=1;" parent="1" vertex="1">
          <mxGeometry x="130" y="900" width="120" height="60" as="geometry" />
        </mxCell>
        <mxCell id="K6sIrCLV8SlveV585Ign-91" style="edgeStyle=orthogonalEdgeStyle;rounded=0;orthogonalLoop=1;jettySize=auto;html=1;exitX=0.5;exitY=1;exitDx=0;exitDy=0;entryX=0.5;entryY=0;entryDx=0;entryDy=0;" parent="1" source="K6sIrCLV8SlveV585Ign-89" target="n2Hj3zOm0ep31aaKVUj5-43" edge="1">
          <mxGeometry relative="1" as="geometry" />
        </mxCell>
        <mxCell id="K6sIrCLV8SlveV585Ign-89" value="Fight-Survive-Exit" style="rounded=0;whiteSpace=wrap;html=1;" parent="1" vertex="1">
          <mxGeometry x="280" y="900" width="120" height="60" as="geometry" />
        </mxCell>
      </root>
    </mxGraphModel>
  </diagram>
</mxfile>
